<svg height="512pt" viewBox="-31 0 512 512" width="512pt" xmlns="http://www.w3.org/2000/svg"><path d="m420 196c0 107.699219-87.300781 195-195 195s-195-87.300781-195-195 87.300781-196 195-196 195 88.300781 195 196zm0 0" fill="#76e2f8"/><path d="m420 196c0 107.699219-87.300781 195-195 195v-391c107.699219 0 195 88.300781 195 196zm0 0" fill="#14c6ef"/><path d="m150 91h30v90h-30zm0 0" fill="#deecf1"/><path d="m120 121h90v30h-90zm0 0" fill="#deecf1"/><path d="m240 181h30v90h-30zm0 0" fill="#c6e2e7"/><path d="m210 211h90v30h-90zm0 0" fill="#deecf1"/><path d="m135 204.789062 21.210938 21.207032-21.210938 21.210937-21.210938-21.210937zm0 0" fill="#a8ebfa"/><path d="m255 84.789062 21.210938 21.207032-21.210938 21.210937-21.210938-21.210937zm0 0" fill="#76e2f8"/><path d="m420 421h-390l30-90h330zm0 0" fill="#deecf1"/><path d="m420 421h-195v-90h165zm0 0" fill="#a8d3d8"/><path d="m225 211h75v30h-75zm0 0" fill="#c6e2e7"/><path d="m450 391v121h-15c-24.902344 0-45-21.097656-45-46v-15h-105c0 33-27 61-60 61s-60-28-60-61h-105v15c0 24.902344-20.097656 46-45 46h-15v-121zm0 0" fill="#54469d"/><path d="m450 391v121h-15c-24.902344 0-45-21.097656-45-46v-15h-105c0 33-27 61-60 61v-121zm0 0" fill="#392e6e"/></svg>