<?xml version="1.0" encoding="iso-8859-1"?>
<!-- Generator: Adobe Illustrator 19.0.0, SVG Export Plug-In . SVG Version: 6.00 Build 0)  -->
<svg version="1.1" id="Capa_1" xmlns="http://www.w3.org/2000/svg" xmlns:xlink="http://www.w3.org/1999/xlink" x="0px" y="0px"
	 viewBox="0 0 512 512" style="enable-background:new 0 0 512 512;" xml:space="preserve">
<path style="fill:#FAC55A;" d="M133.393,508c-8.427,0-15.258-6.427-15.258-14.355c0-13.57,5.738-21.574,10.552-25.9
	c6.94-6.238,16.986-9.4,28.295-8.913c4.55,0.197,8.846-0.251,12.761-1.333c11.403-3.151,33.364-12.674,52.304-41.039
	c23.959-35.881,36.107-89.868,36.107-160.459s-12.148-124.578-36.107-160.459c-18.94-28.365-40.901-37.888-52.305-41.038
	c-3.914-1.081-8.208-1.526-12.759-1.334c-11.316,0.489-21.355-2.677-28.295-8.912c-4.814-4.326-10.552-12.33-10.552-25.901
	c0-7.928,6.832-14.356,15.258-14.356c8.427,0,15.258,6.427,15.258,14.356c0,3.273,0.728,4.792,1.113,5.138
	c0.532,0.478,2.517,1.14,5.816,0.994c7.942-0.344,15.597,0.486,22.762,2.467c18.99,5.247,46.471,18.757,69.545,53.313
	C274.949,120.796,288.67,179.921,288.67,256s-13.722,135.204-40.783,175.733c-23.073,34.556-50.555,48.066-69.545,53.314
	c-7.168,1.98-14.822,2.809-22.762,2.466c-3.296-0.148-5.283,0.517-5.815,0.994c-0.385,0.346-1.113,1.865-1.113,5.138
	C148.652,501.573,141.82,508,133.393,508z"/>
<path style="fill:#DC527C;" d="M426.969,256.232c0.393-0.282,0.393-0.857,0-1.139c-3.143-2.258-14.067-11.222-14.067-26.755
	c0-16.176,15.301-27.325,33.119-27.325c20.466,0,44.654,14.964,65.749,53.744c0.306,0.563,0.306,1.249,0,1.811
	c-21.095,38.78-45.282,53.744-65.749,53.744c-17.819,0-33.119-11.148-33.119-27.325C412.902,267.454,423.826,258.49,426.969,256.232
	z"/>
<path style="fill:#BF476C;" d="M511.77,254.757c-21.095-38.78-45.283-53.744-65.749-53.744c-5.305,0-10.382,0.995-14.903,2.81
	c16.538,5.92,34.252,21.617,50.199,50.934c0.306,0.563,0.306,1.249,0,1.812c-15.948,29.316-33.661,45.014-50.199,50.934
	c4.521,1.815,9.598,2.81,14.903,2.81c20.466,0,44.654-14.964,65.749-53.744C512.077,256.006,512.077,255.319,511.77,254.757z"/>
<path style="fill:#D4B090;" d="M150.255,495.705c-2.523,0-4.986-1.271-6.401-3.578L1.106,259.538
	c-1.473-2.4-1.475-5.421-0.005-7.823L143.365,19.208c2.16-3.532,6.776-4.645,10.311-2.486c3.534,2.158,4.648,6.77,2.488,10.301
	L16.294,255.616l140.348,228.679c2.165,3.528,1.058,8.14-2.474,10.303C152.945,495.348,151.591,495.705,150.255,495.705z"/>
<path style="fill:#F8E4D3;" d="M111.999,255.314c0.032,0.207,0.032,0.407,0,0.614c-0.582,3.799-7.192,41.575-39.97,41.575H11.215
	c-2.426,0-4.202-2.284-3.593-4.628c2.197-8.512,8.058-26.47,19.728-33.913c2.446-1.56,2.446-5.122,0-6.682
	c-11.67-7.443-17.531-25.402-19.728-33.913c-0.609-2.344,1.167-4.628,3.593-4.628h60.814
	C104.807,213.739,111.418,251.515,111.999,255.314z"/>
<path style="fill:#E8C5A7;" d="M72.029,213.739H41.577c32.778,0,39.388,37.776,39.97,41.575c0.032,0.207,0.032,0.407,0,0.614
	c-0.582,3.799-7.192,41.576-39.97,41.576H72.03c32.778,0,39.388-37.776,39.97-41.576c0.032-0.207,0.032-0.407,0-0.614
	C111.418,251.515,104.807,213.739,72.029,213.739z"/>
<path style="fill:#633532;" d="M447.402,263.121H7.5c-4.142,0-7.5-3.357-7.5-7.5c0-4.143,3.358-7.5,7.5-7.5h439.902
	c4.142,0,7.5,3.357,7.5,7.5C454.902,259.764,451.544,263.121,447.402,263.121z"/>
<g>
</g>
<g>
</g>
<g>
</g>
<g>
</g>
<g>
</g>
<g>
</g>
<g>
</g>
<g>
</g>
<g>
</g>
<g>
</g>
<g>
</g>
<g>
</g>
<g>
</g>
<g>
</g>
<g>
</g>
</svg>
