<?xml version="1.0" encoding="iso-8859-1"?>
<!-- Generator: Adobe Illustrator 19.0.0, SVG Export Plug-In . SVG Version: 6.00 Build 0)  -->
<svg version="1.1" id="Capa_1" xmlns="http://www.w3.org/2000/svg" xmlns:xlink="http://www.w3.org/1999/xlink" x="0px" y="0px"
	 viewBox="0 0 512 512" style="enable-background:new 0 0 512 512;" xml:space="preserve">
<path style="fill:#F07A87;" d="M404.462,450.642l-269.522-66.907c-3.291-0.814-5.861-3.383-6.674-6.674L62.437,111.918l17.746-4.407
	l64.494,259.803l264.229,65.582L404.462,450.642z"/>
<path style="fill:#C69C6D;" d="M386.935,228.507l25.856,25.856c57.134,56.841,57.362,149.23,0.521,206.363l0,0l0,0
	c-7.15,7.077-18.679,7.049-25.792-0.064l0,0c-7.122-7.113-7.15-18.651-0.064-25.801l0,0c42.624-42.843,42.45-112.128-0.393-154.761
	l-25.856-25.865L257.765,150.793l-25.865-25.856c-42.633-42.843-111.918-43.017-154.761-0.393l0,0
	c-7.15,7.086-18.688,7.058-25.801-0.064l0,0c-7.113-7.113-7.141-18.642-0.064-25.792l0,0
	c57.125-56.841,149.522-56.613,206.363,0.521l0,0l25.856,25.856L386.935,228.507z"/>
<path style="fill:#A67C52;" d="M257.792,150.766l25.664-25.664c7.122-7.122,18.67-7.122,25.792,0l77.641,77.641
	c7.122,7.122,7.122,18.67,0,25.792l-25.664,25.664c-7.122,7.122-18.67,7.122-25.792,0l-77.641-77.641
	C250.67,169.435,250.67,157.888,257.792,150.766z"/>
<rect x="69.131" y="217.129" transform="matrix(-0.7071 0.7071 -0.7071 -0.7071 647.7587 184.2324)" style="fill:#8C6239;" width="433.184" height="18.286"/>
<path style="fill:#F07A87;" d="M417.435,0H512v94.565c0,9.701-3.858,19.008-10.715,25.865l0,0
	c-14.281,14.281-37.431,14.281-51.712,0l0,0c-6.857-6.857-10.715-16.165-10.715-25.865V73.143h-21.422
	c-9.701,0-19.008-3.858-25.865-10.715l0,0c-14.281-14.281-14.281-37.431,0-51.712l0,0C398.427,3.858,407.735,0,417.435,0z"/>
<polygon style="fill:#5D7C6E;" points="0,448 64,448 64,512 137.143,438.857 137.143,374.857 73.143,374.857 "/>
<g>
	
		<rect x="59.998" y="190.054" transform="matrix(-0.9705 0.2409 -0.2409 -0.9705 197.9154 487.7912)" style="fill:#FC9D9A;" width="18.285" height="131.879"/>
	<path style="fill:#FC9D9A;" d="M484.864,433.371l-16.75-7.314c2.496-5.669,4.681-11.465,6.555-17.371l17.426,5.486
		C490.039,420.699,487.625,427.109,484.864,433.371z"/>
	<path style="fill:#FC9D9A;" d="M497.125,394.971l-17.911-3.657c11.73-56.649-5.87-115.401-46.821-156.27l-18.286-18.286
		l12.928-12.928l18.286,18.286C490.624,267.319,510.098,332.306,497.125,394.971z"/>
</g>
<polygon style="fill:#83AF9B;" points="73.143,374.857 36.571,411.429 100.571,411.429 100.571,475.429 137.143,438.857 
	137.143,374.857 "/>
<path style="fill:#49624A;" d="M66.679,454.464c-5.047,0-9.143-4.096-9.143-9.143c0-2.423,0.96-4.745,2.679-6.464l64.549-64.558
	c3.575-3.575,9.362-3.575,12.937,0s3.575,9.362,0,12.937l-64.558,64.549C71.433,453.504,69.102,454.464,66.679,454.464z"/>
<g>
</g>
<g>
</g>
<g>
</g>
<g>
</g>
<g>
</g>
<g>
</g>
<g>
</g>
<g>
</g>
<g>
</g>
<g>
</g>
<g>
</g>
<g>
</g>
<g>
</g>
<g>
</g>
<g>
</g>
</svg>
