<svg height="512pt" viewBox="0 0 512 512" width="512pt" xmlns="http://www.w3.org/2000/svg"><path d="m512 113.414062-21.265625-21.265624-114.832031 114.828124-24.808594-24.808593 114.832031-114.828125-21.265625-21.265625-114.832031 114.832031-24.808594-24.808594 114.832031-114.832031-21.265624-21.265625-136.09375 136.097656 46.074218 46.070313-24.75 24.753906 21.007813 21.519531 25.003906-25.007812 46.074219 46.074218zm0 0" fill="#fdbf00"/><path d="m375.902344 206.976562-24.808594-24.808593 114.832031-114.828125-10.632812-10.632813-160.972657 160.972657 10.503907 10.761718 25.003906-25.007812 46.074219 46.074218 136.097656-136.09375-21.265625-21.265624zm0 0" fill="#f6a313"/><path d="m309.203125 224.058594-21.261719-21.261719-242.21875 242.214844-24.457031-24.457031-21.265625 21.265624 70.179688 70.179688 21.265624-21.265625-24.457031-24.457031zm0 0" fill="#ba5529"/><path d="m298.570312 213.429688-263.480468 263.480468 35.089844 35.089844 21.265624-21.265625-24.457031-24.457031 242.214844-242.21875zm0 0" fill="#8b4728"/></svg>