<svg xmlns="http://www.w3.org/2000/svg" xmlns:xlink="http://www.w3.org/1999/xlink" version="1.1" style="" xml:space="preserve" width="512" height="512"><rect id="backgroundrect" width="100%" height="100%" x="0" y="0" fill="none" stroke="none"/>

























<g class="currentLayer" style=""><title>Layer 1</title><path style="fill:#B76035;" d="M255.997,0L255.997,0L255.997,0h-0.002l0,0c-18.726,0.076-37.659,1.812-55.874,4.949  c-12.596,2.169-21.252,13.864-19.591,26.536l5.986,45.655h138.961l5.986-45.655c1.662-12.672-6.995-24.367-19.591-26.536  C293.657,1.812,274.724,0.076,255.997,0z" id="svg_1"/><path style="fill:#A04C27;" d="M331.46,31.487l-5.987,45.65h-27.483l6.471-49.329c1.401-10.686-3.988-20.733-12.891-25.731  c6.832,0.752,13.613,1.721,20.3,2.875C324.463,7.117,333.129,18.812,331.46,31.487z" id="svg_2"/><path style="fill:#D5F0F7;" d="M353.869,145.446H158.127c-2.701,0-4.89-2.189-4.89-4.89V82.031c0-2.701,2.189-4.89,4.89-4.89  h195.742c2.701,0,4.89,2.189,4.89,4.89v58.525C358.759,143.256,356.569,145.446,353.869,145.446z" id="svg_3" class=""/><path style="fill:#A6DFE8;" d="M353.869,145.446h-22.062V77.14h22.062c2.701,0,4.89,2.189,4.89,4.89v58.525  C358.759,143.256,356.569,145.446,353.869,145.446z" id="svg_4" class=""/><circle style="fill:#D5F0F7;" cx="256" cy="345.5830078125" r="166.41099548339844" id="svg_5"/><path style="fill:#A6DFE8;" d="M422.409,345.588c0,91.909-74.504,166.412-166.412,166.412c-34.964,0-67.394-10.779-94.176-29.193  c20.311,8.831,42.734,13.736,66.302,13.736c91.909,0,166.412-74.504,166.412-166.412c0-56.954-28.616-107.232-72.247-137.229  C381.211,218.52,422.409,277.236,422.409,345.588z" id="svg_6"/><rect x="175.5590057373047" y="145.4409942626953" style="fill:#D5F0F7;" width="160.86099243164062" height="54.62300109863281" id="svg_7"/><rect x="308.54998779296875" y="145.4409942626953" style="fill:#A6DFE8;" width="27.878000259399414" height="54.62300109863281" id="svg_8"/><path style="" d="M147.72519381046294,312.024 c-3.418,11.118 -5.182,22.961 -5.005,35.241 c0.8840000000000001,61.396 50.937,111.467 112.333,112.371 c63.784,0.9390000000000001 115.784,-50.483 115.784,-114.052 c0,-12.323 -1.9540000000000002,-24.189 -5.569,-35.307 c-1.7610000000000001,-5.416 -6.833,-9.066 -12.528,-9.022 l-192.605,1.484 C154.41119381046295,302.783 149.40619381046295,306.554 147.72519381046294,312.024 z" id="svg_9" class="" fill="#e84141" fill-opacity="1"/><path style="" d="M370.061,345.588c0,63.559-51.998,114.991-115.785,114.043c-15.735-0.237-30.729-3.689-44.341-9.759  c6.142,1.134,12.448,1.772,18.878,1.865c63.786,0.948,115.785-50.483,115.785-114.043c0-12.324-1.958-24.195-5.575-35.314  c-0.113-0.35-0.237-0.691-0.371-1.02l13.314-0.103c5.688-0.041,10.768,3.607,12.531,9.017  C368.104,321.393,370.061,333.264,370.061,345.588z" id="svg_10" class="" fill="#e84141" fill-opacity="1"/><g id="svg_11">
</g><g id="svg_12">
</g><g id="svg_13">
</g><g id="svg_14">
</g><g id="svg_15">
</g><g id="svg_16">
</g><g id="svg_17">
</g><g id="svg_18">
</g><g id="svg_19">
</g><g id="svg_20">
</g><g id="svg_21">
</g><g id="svg_22">
</g><g id="svg_23">
</g><g id="svg_24">
</g><g id="svg_25">
</g></g></svg>