<?xml version="1.0" encoding="iso-8859-1"?>
<!-- Generator: Adobe Illustrator 19.0.0, SVG Export Plug-In . SVG Version: 6.00 Build 0)  -->
<svg version="1.1" id="Capa_1" xmlns="http://www.w3.org/2000/svg" xmlns:xlink="http://www.w3.org/1999/xlink" x="0px" y="0px"
	 viewBox="0 0 512 512" style="enable-background:new 0 0 512 512;" xml:space="preserve">
<path style="fill:#B76035;" d="M255.997,0L255.997,0L255.997,0h-0.002l0,0c-18.726,0.076-37.659,1.812-55.874,4.949
	c-12.596,2.169-21.252,13.864-19.591,26.536l5.986,45.655h138.961l5.986-45.655c1.662-12.672-6.995-24.367-19.591-26.536
	C293.657,1.812,274.724,0.076,255.997,0z"/>
<path style="fill:#A04C27;" d="M331.46,31.487l-5.987,45.65h-27.483l6.471-49.329c1.401-10.686-3.988-20.733-12.891-25.731
	c6.832,0.752,13.613,1.721,20.3,2.875C324.463,7.117,333.129,18.812,331.46,31.487z"/>
<path style="fill:#D5F0F7;" d="M353.869,145.446H158.127c-2.701,0-4.89-2.189-4.89-4.89V82.031c0-2.701,2.189-4.89,4.89-4.89
	h195.742c2.701,0,4.89,2.189,4.89,4.89v58.525C358.759,143.256,356.569,145.446,353.869,145.446z"/>
<path style="fill:#A6DFE8;" d="M353.869,145.446h-22.062V77.14h22.062c2.701,0,4.89,2.189,4.89,4.89v58.525
	C358.759,143.256,356.569,145.446,353.869,145.446z"/>
<circle style="fill:#D5F0F7;" cx="256" cy="345.583" r="166.411"/>
<path style="fill:#A6DFE8;" d="M422.409,345.588c0,91.909-74.504,166.412-166.412,166.412c-34.964,0-67.394-10.779-94.176-29.193
	c20.311,8.831,42.734,13.736,66.302,13.736c91.909,0,166.412-74.504,166.412-166.412c0-56.954-28.616-107.232-72.247-137.229
	C381.211,218.52,422.409,277.236,422.409,345.588z"/>
<rect x="175.559" y="145.441" style="fill:#D5F0F7;" width="160.861" height="54.623"/>
<rect x="308.55" y="145.441" style="fill:#A6DFE8;" width="27.878" height="54.623"/>
<path style="fill:#00AD95;" d="M146.95,312.024c-3.418,11.118-5.182,22.961-5.005,35.241
	c0.884,61.396,50.937,111.467,112.333,112.371c63.784,0.939,115.784-50.483,115.784-114.052c0-12.323-1.954-24.189-5.569-35.307
	c-1.761-5.416-6.833-9.066-12.528-9.022l-192.605,1.484C153.636,302.783,148.631,306.554,146.95,312.024z"/>
<path style="fill:#039377;" d="M370.061,345.588c0,63.559-51.998,114.991-115.785,114.043c-15.735-0.237-30.729-3.689-44.341-9.759
	c6.142,1.134,12.448,1.772,18.878,1.865c63.786,0.948,115.785-50.483,115.785-114.043c0-12.324-1.958-24.195-5.575-35.314
	c-0.113-0.35-0.237-0.691-0.371-1.02l13.314-0.103c5.688-0.041,10.768,3.607,12.531,9.017
	C368.104,321.393,370.061,333.264,370.061,345.588z"/>
<g>
</g>
<g>
</g>
<g>
</g>
<g>
</g>
<g>
</g>
<g>
</g>
<g>
</g>
<g>
</g>
<g>
</g>
<g>
</g>
<g>
</g>
<g>
</g>
<g>
</g>
<g>
</g>
<g>
</g>
</svg>
