<svg height="512pt" viewBox="-30 0 512 512.00039" width="512pt" xmlns="http://www.w3.org/2000/svg"><path d="m2.925781 447.554688c-3.902343 3.902343-3.902343 10.226562 0 14.132812l47.386719 47.386719c4.625 4.625 12.375 3.632812 15.683594-2.007813l90.089844-155.207031 1.417968-58.882813zm0 0" fill="#b57f5f"/><path d="m46.972656 505.730469 3.339844 3.339843c4.625 4.625 12.375 3.632813 15.683594-2.003906l90.089844-155.210937.855468-35.585938zm0 0" fill="#9f6e50"/><path d="m185.144531 283.78125c-1.488281 1.488281-3.542969 2.40625-5.8125 2.40625l-35.09375.007812c-4.539062 0-8.214843-3.679687-8.214843-8.21875 0-4.539062 3.675781-8.21875 8.214843-8.21875l35.09375-.003906c4.542969 0 8.21875 3.675782 8.21875 8.21875 0 2.269532-.917969 4.324219-2.40625 5.808594zm0 0" fill="#c8c5c9"/><path d="m220.050781 333.023438c-2.445312 2.449218-6.277343 3.167968-9.53125 1.515624l-13.46875-6.839843c-4.050781-2.054688-5.660156-7.003907-3.609375-11.042969 2.0625-4.082031 7.003906-5.664062 11.046875-3.609375l13.46875 6.835937c4.050781 2.058594 5.664063 7.007813 3.609375 11.046876-.402344.800781-.921875 1.5-1.515625 2.09375zm0 0" fill="#b6b1b7"/><path d="m251.480469 337.804688-19.144531 19.144531c-9.613282 9.613281-25.253907 9.613281-34.871094 0l-5.011719-5.011719c-9.613281-9.617188-9.613281-25.257812 0-34.871094l19.144531-19.144531c9.617188-9.617187 25.257813-9.617187 34.871094 0l5.011719 5.011719c9.617187 9.613281 9.617187 25.253906 0 34.871094zm-47.402344-9.117188c-3.207031 3.207031-3.207031 8.417969 0 11.625l5.011719 5.011719c3.207031 3.207031 8.417968 3.207031 11.625 0l19.144531-19.144531c3.207031-3.207032 3.207031-8.414063 0-11.621094l-5.011719-5.015625c-3.207031-3.207031-8.417968-3.207031-11.625 0zm0 0" fill="#c8c5c9"/><path d="m408.1875 2.40625c-3.210938 3.210938-3.210938 8.414062 0 11.625l1.253906 1.253906c3.207032 3.210938 3.207032 8.414063 0 11.625l-154.390625 154.386719 28.265625 28.261719 164.757813-164.757813c3.902343-3.902343 3.902343-10.226562 0-14.132812l-28.265625-28.261719c-3.207032-3.207031-8.414063-3.207031-11.621094 0zm0 0" fill="#5d5360"/><path d="m283.945312 184.765625 12.082032 12.082031 152.046875-152.046875c3.902343-3.902343 3.902343-10.226562 0-14.132812l-5.015625-5.015625zm0 0" fill="#4b3f4e"/><path d="m187.496094 425.5v-75.300781c0-10.601563 4.210937-20.765625 11.707031-28.261719l100.488281-100.488281c7.804688-7.804688 7.804688-20.460938 0-28.265625l-22.453125-22.449219c-3.207031-3.210937-8.414062-3.210937-11.621093 0l-91.25 91.246094c-18.738282 18.742187-29.265626 44.15625-29.265626 70.660156v92.859375c0 11.707031 9.488282 21.195312 21.195313 21.195312s21.199219-9.488281 21.199219-21.195312zm0 0" fill="#c38c66"/><path d="m198.75 293.210938c-18.742188 18.738281-29.269531 44.15625-29.269531 70.65625v82.585937c10.207031-1.5 18.015625-10.339844 18.015625-20.953125v-75.300781c0-10.601563 4.210937-20.765625 11.707031-28.261719l100.488281-100.492188c7.804688-7.804687 7.804688-20.457031 0-28.261718l-.457031-.457032zm0 0" fill="#b57f5f"/><path d="m249.59375 219.121094-28.769531 28.773437 11.625 11.621094 28.769531-28.769531c3.210938-3.210938 3.210938-8.410156 0-11.625-3.210938-3.210938-8.410156-3.210938-11.625 0zm0 0" fill="#b6b1b7"/><path d="m252.042969 269.097656-17.433594 17.433594-42.394531-42.394531 17.433594-17.433594zm0 0" fill="#c8c5c9"/><path d="m252.042969 269.097656-17.433594 17.433594-14.589844-14.585938 17.4375-17.4375zm0 0" fill="#b6b1b7"/><path d="m18.554688 431.925781-15.628907 15.628907c-3.902343 3.902343-3.902343 10.226562 0 14.132812l47.386719 47.386719c4.625 4.625 12.375 3.632812 15.683594-2.007813l10.171875-17.527344zm0 0" fill="#5d5360"/><path d="m46.972656 505.730469 3.339844 3.339843c4.625 4.625 12.375 3.632813 15.683594-2.003906l10.171875-17.527344-12.523438-12.527343zm0 0" fill="#4b3f4e"/></svg>